<svg width="28" height="28" viewBox="0 0 28 28" fill="none" xmlns="http://www.w3.org/2000/svg">
<g clip-path="url(#clip0_1305_4401)">
<path d="M26.7889 13.8378C26.7889 12.9184 26.7143 11.9939 26.5553 11.0894H13.7969V16.2981H21.103C20.7998 17.978 19.8257 19.464 18.3992 20.4084V23.7881H22.7581C25.3177 21.4322 26.7889 17.9531 26.7889 13.8378Z" fill="#4285F4"/>
<path d="M13.7969 27.0535C17.445 27.0535 20.5215 25.8557 22.763 23.7881L18.4042 20.4084C17.1915 21.2334 15.6259 21.7006 13.8018 21.7006C10.273 21.7006 7.28101 19.3199 6.20745 16.1191H1.70947V19.6032C4.00568 24.1708 8.68259 27.0535 13.7969 27.0535V27.0535Z" fill="#34A853"/>
<path d="M6.20286 16.119C5.63627 14.4391 5.63627 12.62 6.20286 10.9401V7.45605H1.70985C-0.208623 11.2781 -0.208623 15.781 1.70985 19.6031L6.20286 16.119V16.119Z" fill="#FBBC04"/>
<path d="M13.7969 5.35376C15.7253 5.32394 17.5891 6.04958 18.9857 7.38158L22.8475 3.51977C20.4022 1.22357 17.1567 -0.0388496 13.7969 0.000911518C8.68259 0.000911518 4.00568 2.8836 1.70947 7.45613L6.20248 10.9402C7.27106 7.73446 10.2681 5.35376 13.7969 5.35376V5.35376Z" fill="#EA4335"/>
</g>
<defs>
<clipPath id="clip0_1305_4401">
<rect width="27.0525" height="27.0525" fill="white"/>
</clipPath>
</defs>
</svg>
