<svg width="325" height="30" viewBox="0 0 325 30" fill="none" xmlns="http://www.w3.org/2000/svg">
<path d="M20.1602 10.5625H26.0977C25.3164 4.05859 20.3945 0.328125 13.8711 0.328125C6.41016 0.328125 0.707031 5.62109 0.707031 14.8594C0.707031 24.0586 6.3125 29.3906 13.8711 29.3906C21.0586 29.3906 25.4531 24.625 26.0977 19.3906L20.1602 19.3516C19.5938 22.418 17.1719 24.1758 13.9492 24.1953C9.63281 24.1758 6.68359 20.9531 6.68359 14.8594C6.68359 8.90234 9.59375 5.54297 13.9883 5.52344C17.2891 5.54297 19.6914 7.4375 20.1602 10.5625ZM50.418 29L52.5469 22.4766H62.7812L64.9102 29H71.1992L61.4336 0.71875H53.8945L44.0898 29H50.418ZM54.0312 17.9062L57.5664 7.08594H57.7617L61.2969 17.9062H54.0312ZM85.832 5.5625H94.5039V29H100.324V5.5625H108.996V0.71875H85.832V5.5625ZM128.629 29H147.652V24.1562H134.488V17.2812H146.637V12.4375H134.488V5.5625H147.613V0.71875H128.629V29ZM186.973 9.82031H192.91C192.129 4.25391 187.227 0.328125 180.84 0.328125C173.379 0.328125 167.637 5.71875 167.637 14.8984C167.637 23.8438 173.027 29.3906 180.957 29.3906C188.086 29.3906 193.184 24.8594 193.184 17.4375V13.9219H181.387V18.3359H187.52C187.441 21.8906 185.039 24.1758 180.996 24.1953C176.484 24.1758 173.613 20.7969 173.613 14.8203C173.613 8.88281 176.582 5.54297 180.957 5.52344C184.043 5.54297 186.172 7.16406 186.973 9.82031ZM239.379 14.8594C239.379 5.62109 233.656 0.328125 226.176 0.328125C218.637 0.328125 212.934 5.62109 212.934 14.8594C212.934 24.0586 218.637 29.3906 226.176 29.3906C233.656 29.3906 239.379 24.0977 239.379 14.8594ZM218.91 14.8594C218.91 8.80469 221.781 5.54297 226.176 5.52344C230.531 5.54297 233.422 8.80469 233.402 14.8594C233.422 20.8945 230.531 24.1758 226.176 24.1953C221.781 24.1758 218.91 20.8945 218.91 14.8594ZM259.598 29H265.457V18.9609H269.93L275.34 29H281.824L275.809 18.0039C279.031 16.6172 280.809 13.8047 280.809 9.9375C280.809 4.33203 277.117 0.71875 270.691 0.71875H259.598V29ZM265.457 14.1953V5.52344H269.598C273.074 5.54297 274.773 7.08594 274.754 9.9375C274.773 12.7695 273.074 14.1953 269.598 14.1953H265.457ZM297.98 0.71875L308.293 18.9219V29H314.152V18.9219L324.465 0.71875H317.863L311.379 12.9062H311.105L304.582 0.71875H297.98Z" fill="#4E4C4C"/>
</svg>
