<svg width="84" height="83" viewBox="0 0 84 83" fill="none" xmlns="http://www.w3.org/2000/svg">
<path d="M46.2222 29H46.2644H46.2222Z" fill="#C4C4C4"/>
<path d="M46.2222 12.3333H12.4444C10.2048 12.3333 8.05696 13.2113 6.47332 14.7741C4.88968 16.3369 4 18.4565 4 20.6667V62.3333M4 62.3333V70.6667C4 72.8768 4.88968 74.9964 6.47332 76.5592C8.05696 78.122 10.2048 79 12.4444 79H63.1111C65.3507 79 67.4986 78.122 69.0822 76.5592C70.6659 74.9964 71.5556 72.8768 71.5556 70.6667V54M4 62.3333L23.3631 43.225C24.9467 41.6627 27.0942 40.7851 29.3333 40.7851C31.5725 40.7851 33.72 41.6627 35.3036 43.225L46.2222 54M71.5556 37.3333V54M71.5556 54L64.8591 47.3917C63.2755 45.8294 61.1281 44.9518 58.8889 44.9518C56.6497 44.9518 54.5022 45.8294 52.9187 47.3917L46.2222 54M46.2222 54L54.6667 62.3333M63.1111 12.3333H80M71.5556 4V20.6667M46.2222 29H46.2644" stroke="#C4C4C4" stroke-width="7" stroke-linecap="round" stroke-linejoin="round"/>
</svg>
