<svg width="60" height="60" viewBox="0 0 60 60" fill="none" xmlns="http://www.w3.org/2000/svg">
<path d="M50.1595 37.7192L49.7202 38.1585V38.7798V49.7202H38.7798H38.1585L37.7192 50.1595L30 57.8787L22.2808 50.1595L21.8415 49.7202H21.2202H10.2798V38.7798V38.1585L9.8405 37.7192L2.12132 30L9.8405 22.2808L10.2798 21.8415V21.2202V10.2798H21.2202H21.8415L22.2808 9.8405L30 2.12132L37.7192 9.8405L38.1585 10.2798H38.7798H49.7202V21.2202V21.8415L50.1595 22.2808L57.8787 30L50.1595 37.7192ZM12.5849 30C12.5849 39.6083 20.3917 47.4151 30 47.4151C39.6083 47.4151 47.4151 39.6083 47.4151 30C47.4151 20.3917 39.6083 12.5849 30 12.5849C20.3917 12.5849 12.5849 20.3917 12.5849 30Z" stroke="black" stroke-opacity="0.51" stroke-width="3"/>
</svg>
