<svg width="278" height="278" viewBox="0 0 278 278" fill="none" xmlns="http://www.w3.org/2000/svg">
<circle cx="139" cy="139" r="135" stroke="#4E4C4C" stroke-width="8"/>
<path d="M133.667 77.333C147.289 77.333 158.333 88.3766 158.333 102V114.333H169.125C176.788 114.333 183 120.545 183 128.208L183.003 132.833C181.036 132.833 179.069 133.509 177.473 134.859L176.812 135.48C175.802 136.532 174.785 137.47 173.756 138.297L173.75 128.208C173.75 125.654 171.679 123.583 169.125 123.583H98.2084C95.6541 123.583 93.5834 125.654 93.5834 128.208V186.791C93.5834 189.346 95.6541 191.416 98.2084 191.416L159.187 191.421C161.7 194.977 164.874 198.07 168.683 200.669L98.2084 200.666C90.5454 200.666 84.3334 194.454 84.3334 186.791V128.208C84.3334 120.545 90.5454 114.333 98.2084 114.333H109V102C109 88.3766 120.044 77.333 133.667 77.333ZM184.75 139.754C190.867 146.138 197.646 149.278 205.2 149.278C206.392 149.278 207.387 150.158 207.617 151.329L207.667 151.847V167.27C207.667 183.809 199.57 195.052 183.78 200.534C183.274 200.71 182.726 200.71 182.22 200.534C166.957 195.235 158.882 184.552 158.361 168.906L158.333 167.27V151.847C158.333 150.428 159.438 149.278 160.8 149.278C168.344 149.278 175.127 146.138 181.26 139.752C182.224 138.748 183.787 138.749 184.75 139.754ZM133.667 148.25C138.776 148.25 142.917 152.391 142.917 157.5C142.917 162.608 138.776 166.75 133.667 166.75C128.559 166.75 124.417 162.608 124.417 157.5C124.417 152.391 128.559 148.25 133.667 148.25ZM133.667 86.583C125.152 86.583 118.25 93.4853 118.25 102V114.333H149.083V102C149.083 93.4853 142.181 86.583 133.667 86.583Z" fill="#4E4C4C"/>
</svg>
