<svg width="146" height="128" viewBox="0 0 146 128" fill="none" xmlns="http://www.w3.org/2000/svg">
<g clip-path="url(#clip0_1305_4076)">
<path d="M60.6228 78.6657H58.4561V62.3105H60.6228V78.6657Z" fill="black"/>
<path d="M62.9456 62.3105H65.1123V68.0481H62.9456V62.3105Z" fill="black"/>
<path d="M68.8846 78.6325C68.3078 78.5006 67.7778 78.2863 67.279 78.0225C66.7802 77.7587 66.3281 77.4125 65.9072 77.0168L67.2011 75.3351C67.7934 75.8132 68.3858 76.1759 68.9781 76.4232C69.5705 76.6705 70.1472 76.786 70.724 76.786C71.5814 76.786 72.2205 76.6541 72.657 76.3573C73.0934 76.077 73.2961 75.6483 73.2961 75.0878C73.2961 74.7086 73.1714 74.4283 72.9531 74.2469C72.7193 74.0656 72.4231 73.9337 72.0802 73.8677C71.7373 73.8018 71.2384 73.7523 70.6149 73.6864C70.5525 73.6864 70.5058 73.6864 70.4278 73.6864C70.3655 73.6864 70.3031 73.6864 70.2408 73.6864C70.2096 73.6864 70.1784 73.6864 70.1628 73.6864C70.1317 73.6864 70.1005 73.6864 70.0849 73.6864C69.3678 73.6204 68.7599 73.5215 68.2611 73.3566C67.7622 73.1918 67.3569 72.895 67.0296 72.4499C66.7022 72.0047 66.5308 71.3782 66.5308 70.5538C66.5308 69.7295 66.6866 69.037 67.014 68.4929C67.3258 67.9489 67.809 67.5367 68.4325 67.2564C69.0717 66.9761 69.8511 66.8442 70.802 66.8442C71.3787 66.8442 71.9243 66.8937 72.4387 67.0091C72.9531 67.1245 73.452 67.2894 73.9352 67.5037C74.4029 67.7181 74.8705 67.9983 75.307 68.3446L73.9976 70.0262C73.452 69.647 72.9064 69.3668 72.3608 69.1854C71.8308 69.0041 71.3008 68.9051 70.7864 68.9051C70.0537 68.9051 69.4925 69.037 69.134 69.3008C68.7599 69.5646 68.5884 69.9603 68.5884 70.5044C68.5884 70.8176 68.6975 71.0484 68.9002 71.2133C69.1028 71.3782 69.3678 71.4771 69.6952 71.5266C70.0069 71.576 70.4746 71.6255 71.0514 71.6585C71.0981 71.6585 71.1449 71.6585 71.1761 71.6585C71.2072 71.6585 71.2696 71.6585 71.3164 71.6585H71.3787C71.3787 71.6585 71.4255 71.6585 71.4411 71.6585C72.2205 71.7079 72.8752 71.8233 73.4208 71.9882C73.9664 72.1531 74.4184 72.4828 74.7926 72.961C75.1667 73.4556 75.3537 74.148 75.3537 75.0713C75.3537 75.9121 75.1823 76.6046 74.8393 77.1652C74.4964 77.7092 73.982 78.1379 73.2961 78.4017C72.6102 78.682 71.7528 78.8139 70.7084 78.8139C70.0537 78.8139 69.4458 78.7479 68.869 78.616L68.8846 78.6325Z" fill="black"/>
<path d="M84.5198 78.3027C83.943 77.9235 83.5065 77.3959 83.2104 76.6705C82.9142 75.9615 82.7583 75.1042 82.7583 74.0985V71.5265C82.7583 70.5208 82.8986 69.6635 83.1948 68.9545C83.4909 68.2456 83.9118 67.7015 84.473 67.3223C85.0342 66.9596 85.7045 66.7617 86.4839 66.7617C87.1386 66.7617 87.731 66.9431 88.2766 67.3058C88.8221 67.6685 89.2586 68.1796 89.586 68.8226L89.3677 71.2132C89.3677 70.7186 89.2898 70.29 89.1183 69.9437C88.9469 69.5975 88.6974 69.3172 88.3857 69.1359C88.0739 68.9545 87.6686 68.8556 87.2166 68.8556C86.4995 68.8556 85.9383 69.0864 85.5486 69.5645C85.1589 70.0427 84.9563 70.7021 84.9563 71.5595V74.0985C84.9563 74.9393 85.1589 75.5988 85.5486 76.0604C85.9383 76.5221 86.4995 76.7529 87.2166 76.7529C87.6842 76.7529 88.0739 76.654 88.3857 76.4726C88.6974 76.2913 88.9624 76.011 89.1183 75.6483C89.2898 75.2855 89.3677 74.8569 89.3677 74.3623L89.5236 76.8189C89.3054 77.3959 88.9469 77.874 88.448 78.2697C87.9492 78.6654 87.3257 78.8632 86.6086 78.8632C85.798 78.8632 85.1121 78.6819 84.5354 78.3027H84.5198ZM84.5665 82.9191C83.9118 82.5893 83.3974 82.1277 83.0389 81.5342L84.5042 80.1328C84.7848 80.5449 85.1277 80.8582 85.5174 81.089C85.9071 81.3198 86.328 81.4352 86.7489 81.4352C87.5751 81.4352 88.2142 81.1879 88.6663 80.7098C89.1183 80.2317 89.3521 79.5392 89.3521 78.6489V66.9761H91.5189V78.3027C91.5189 79.3743 91.3319 80.2976 90.9577 81.056C90.5836 81.8144 90.038 82.408 89.3366 82.8037C88.6351 83.1994 87.7777 83.3972 86.7801 83.3972C85.9539 83.3972 85.2057 83.2323 84.551 82.9026L84.5665 82.9191Z" fill="black"/>
<path d="M94.8704 77.9403C94.2001 77.3468 93.8572 76.44 93.8572 75.2199C93.8572 73.9999 94.1689 73.192 94.7769 72.615C95.4004 72.0379 96.3201 71.7412 97.5672 71.7412H100.7L100.856 73.5877H97.5828C97.0216 73.5877 96.5851 73.7196 96.3045 73.9834C96.024 74.2472 95.8837 74.6594 95.8837 75.2035C95.8837 75.797 96.0707 76.2257 96.4448 76.5224C96.819 76.8192 97.3801 76.9511 98.144 76.9511C98.9701 76.9511 99.5937 76.8522 99.999 76.6708C100.404 76.4895 100.607 76.1927 100.607 75.797L100.825 77.4457C100.638 77.759 100.404 78.0228 100.124 78.2206C99.8431 78.4184 99.5157 78.5833 99.1572 78.6822C98.7831 78.7812 98.3778 78.8306 97.9101 78.8306C96.554 78.8306 95.5251 78.5338 94.8548 77.9403H94.8704ZM100.623 71.263C100.623 70.5046 100.435 69.9111 100.046 69.4824C99.656 69.0538 99.1104 68.8394 98.409 68.8394C97.9725 68.8394 97.536 68.9054 97.1151 69.0538C96.6942 69.2022 96.3201 69.4 95.9928 69.6473L94.4028 68.4932C94.8237 67.9656 95.3692 67.537 96.0551 67.2567C96.741 66.9599 97.5048 66.8115 98.331 66.8115C99.2507 66.8115 100.03 66.9764 100.685 67.3226C101.34 67.6689 101.838 68.1635 102.181 68.8065C102.524 69.4495 102.696 70.2408 102.696 71.1476V78.6493H100.638V71.2466L100.623 71.263Z" fill="black"/>
<path d="M107.715 75.6485C107.715 75.9288 107.777 76.1596 107.887 76.308C108.011 76.4564 108.167 76.5388 108.385 76.5388H109.399V78.7151H108.12C107.294 78.7151 106.655 78.4513 106.219 77.9072C105.767 77.3632 105.548 76.6047 105.548 75.6155V62.2939H107.715V75.632V75.6485Z" fill="black"/>
<path d="M113.592 75.6485C113.592 75.9288 113.654 76.1596 113.763 76.308C113.888 76.4564 114.044 76.5388 114.262 76.5388H115.275V78.7151H113.997C113.171 78.7151 112.532 78.4513 112.095 77.9072C111.643 77.3632 111.425 76.6047 111.425 75.6155V62.2939H113.592V75.632V75.6485Z" fill="black"/>
<path d="M119.204 78.2207C118.487 77.8085 117.925 77.215 117.551 76.4401C117.177 75.6652 116.975 74.709 116.975 73.6043V72.2854C116.975 71.1313 117.162 70.142 117.52 69.3342C117.879 68.5098 118.409 67.8998 119.11 67.4711C119.812 67.0425 120.638 66.8281 121.62 66.8281C122.54 66.8281 123.335 67.0754 123.974 67.5536C124.628 68.0317 125.127 68.7406 125.47 69.6639C125.813 70.5872 125.985 71.6918 125.985 72.9778V73.7362H118.533V71.8897H123.911C123.849 70.9334 123.615 70.1915 123.21 69.6639C122.805 69.1363 122.275 68.8725 121.604 68.8725C120.778 68.8725 120.139 69.1528 119.703 69.7299C119.251 70.3069 119.032 71.0983 119.032 72.1535V73.6373C119.032 74.61 119.266 75.352 119.749 75.8631C120.233 76.3742 120.918 76.6379 121.807 76.6379C122.243 76.6379 122.68 76.539 123.116 76.3577C123.553 76.1763 123.943 75.9125 124.27 75.5663L125.688 77.0831C125.143 77.6437 124.535 78.0723 123.849 78.3691C123.163 78.6659 122.477 78.8307 121.791 78.8307C120.763 78.8307 119.905 78.6329 119.173 78.2207H119.204Z" fill="black"/>
<path d="M128.541 66.993H130.708V78.6659H128.541V66.993ZM133.888 69.2023C133.592 69.0704 133.264 69.0044 132.875 69.0044C132.189 69.0044 131.659 69.2023 131.269 69.6144C130.879 70.0266 130.692 70.5707 130.692 71.2796L130.474 69.0374C130.817 68.3449 131.253 67.8009 131.799 67.4052C132.345 67.0095 132.937 66.8281 133.592 66.8281C134.09 66.8281 134.558 66.9106 134.963 67.0589C135.369 67.2073 135.727 67.4381 136.039 67.7349L134.62 69.7628C134.433 69.5155 134.184 69.3342 133.903 69.2023H133.888Z" fill="black"/>
<path d="M136.226 66.9927H138.44L141.838 77.1487L140.638 79.6383L136.226 67.0092V66.9927ZM146 66.9927L141.292 81.4024C141.121 81.93 140.903 82.3587 140.622 82.6719C140.341 82.9852 139.998 83.1995 139.593 83.3479C139.188 83.4798 138.689 83.5457 138.097 83.5457H137.66V81.3364H138.097C138.502 81.3364 138.814 81.254 139.063 81.0727C139.313 80.8913 139.515 80.611 139.687 80.1824L143.771 66.9927H145.984H146Z" fill="black"/>
<path d="M19.3452 19.856H118.736H120.092V21.2903V59.7053H117.38V22.7247H20.7014V124.978H117.38V87.9806H120.092V126.412V127.83H118.736H19.3452H17.989V126.412V21.2903V19.856H19.3452Z" fill="black"/>
<path d="M1.35618 0.17041H100.747H102.103V1.60479V59.1612H99.391V3.03917H2.71236V105.292H99.391V88.228H102.103V106.727V108.161H100.747H1.35618H0V106.727V1.60479V0.17041H1.35618Z" fill="black"/>
</g>
<defs>
<clipPath id="clip0_1305_4076">
<rect width="146" height="127.66" fill="white" transform="translate(0 0.17041)"/>
</clipPath>
</defs>
</svg>
