<svg width="158" height="130" viewBox="0 0 158 130" fill="none" xmlns="http://www.w3.org/2000/svg">
<mask id="mask0_1901_2412" style="mask-type:luminance" maskUnits="userSpaceOnUse" x="0" y="0" width="158" height="130">
<path d="M157.272 0H0V129.907H157.272V0Z" fill="white"/>
</mask>
<g mask="url(#mask0_1901_2412)">
<path d="M64.385 79.7026H62.5334V66.5176H64.385V79.7026ZM66.7448 66.5176H68.5964V71.1423H66.7448V66.5176ZM73.7426 79.8388C73.186 79.8388 72.6626 79.7838 72.1725 79.6755C71.6884 79.5664 71.2345 79.4031 70.811 79.1857C70.3874 78.9683 69.9972 78.6959 69.6401 78.3693L70.7384 77.0184C71.2467 77.4052 71.7519 77.6953 72.2541 77.8888C72.7564 78.0822 73.2525 78.179 73.7426 78.179C74.4748 78.179 75.0224 78.0675 75.3854 77.8439C75.7546 77.6141 75.9391 77.2724 75.9391 76.8189C75.9391 76.5167 75.8392 76.2899 75.6395 76.1388C75.4399 75.9877 75.1918 75.8879 74.8953 75.8396C74.5988 75.7852 74.1813 75.7368 73.6428 75.6945C73.5944 75.6945 73.5429 75.6945 73.4885 75.6945C73.434 75.6885 73.3826 75.6824 73.3342 75.6764C73.31 75.6764 73.2858 75.6764 73.2616 75.6764C73.2374 75.6704 73.2132 75.6673 73.189 75.6673C72.5778 75.619 72.0605 75.5313 71.637 75.4043C71.2134 75.2713 70.8594 75.0265 70.575 74.6698C70.2967 74.3132 70.1575 73.8023 70.1575 73.1373C70.1575 72.4723 70.2936 71.9192 70.566 71.4779C70.8382 71.0366 71.2437 70.7071 71.7822 70.4895C72.3207 70.2658 72.9954 70.1539 73.8061 70.1539C74.2963 70.1539 74.7622 70.1993 75.2039 70.2899C75.6517 70.3806 76.0782 70.5166 76.4837 70.698C76.8891 70.8733 77.2793 71.097 77.6547 71.3691L76.5381 72.7202C76.0661 72.4179 75.6003 72.1912 75.1404 72.0401C74.6866 71.8889 74.2418 71.8134 73.8061 71.8134C73.1768 71.8134 72.7049 71.9222 72.3902 72.1398C72.0756 72.3514 71.9183 72.6718 71.9183 73.1011C71.9183 73.355 72.006 73.5454 72.1815 73.6723C72.3631 73.7993 72.5899 73.8839 72.8622 73.9263C73.1345 73.9685 73.5218 74.0048 74.024 74.0351C74.0603 74.0411 74.0966 74.0441 74.1329 74.0441C74.1753 74.0441 74.2176 74.0471 74.26 74.0532C74.2781 74.0532 74.2963 74.0532 74.3144 74.0532C74.3326 74.0532 74.3508 74.0562 74.3689 74.0622C75.0285 74.1045 75.5881 74.1922 76.048 74.3252C76.5139 74.4583 76.9042 74.7212 77.2188 75.1141C77.5331 75.5071 77.6911 76.0754 77.6911 76.8189C77.6911 77.4957 77.5455 78.0583 77.2552 78.5055C76.9647 78.9466 76.526 79.2793 75.9391 79.503C75.3582 79.7266 74.626 79.8388 73.7426 79.8388ZM88.2012 83.5291C87.4933 83.5291 86.8582 83.396 86.2952 83.1306C85.7383 82.8706 85.3061 82.5015 84.9971 82.024L86.2495 80.8904C86.4919 81.2231 86.7792 81.48 87.1123 81.6611C87.4507 81.843 87.8047 81.9335 88.1741 81.9335C88.882 81.9335 89.4296 81.7369 89.8169 81.3438C90.2041 80.9569 90.3978 80.4068 90.3978 79.6933V70.2899H92.2488V79.4217C92.2488 80.2861 92.0885 81.0266 91.7679 81.6433C91.4534 82.26 90.9934 82.7282 90.3885 83.0485C89.7836 83.3689 89.054 83.5291 88.2012 83.5291ZM88.0285 79.8659C87.3392 79.8659 86.749 79.7181 86.2588 79.4217C85.7747 79.1191 85.406 78.6812 85.1512 78.107C84.8972 77.5321 84.7702 76.8431 84.7702 76.0391V73.9625C84.7702 73.1525 84.8941 72.4602 85.1427 71.8859C85.3905 71.3116 85.7507 70.8764 86.2224 70.5801C86.7002 70.2778 87.2726 70.1267 87.9379 70.1267C88.4948 70.1267 89.0029 70.2718 89.4629 70.562C89.9284 70.8522 90.304 71.2602 90.5883 71.7861L90.3978 73.7086C90.3978 73.3096 90.3249 72.9681 90.1801 72.6839C90.0345 72.3998 89.8231 72.1852 89.5442 72.0401C89.2724 71.8889 88.9393 71.8134 88.5459 71.8134C87.9348 71.8134 87.46 72.0038 87.1208 72.3847C86.7885 72.7655 86.622 73.3006 86.622 73.9897V76.0391C86.622 76.7222 86.7885 77.2512 87.1208 77.6257C87.46 77.9948 87.9348 78.179 88.5459 78.179C88.9393 78.179 89.2724 78.1039 89.5442 77.9522C89.8231 77.7952 90.0345 77.5715 90.1801 77.2814C90.3249 76.9912 90.3978 76.6436 90.3978 76.2386L90.5248 78.2246C90.3373 78.6897 90.0283 79.0797 89.5992 79.3946C89.1756 79.7088 88.652 79.8659 88.0285 79.8659ZM100.381 73.7358C100.381 73.1192 100.215 72.6416 99.8824 72.303C99.5556 71.9585 99.0893 71.7861 98.4844 71.7861C98.1095 71.7861 97.7401 71.8436 97.3776 71.9585C97.0206 72.0733 96.7023 72.2336 96.4242 72.4391L95.0719 71.5141C95.429 71.0849 95.8975 70.7524 96.4784 70.5166C97.0655 70.2748 97.7161 70.1539 98.4302 70.1539C99.2109 70.1539 99.8793 70.2929 100.436 70.571C100.993 70.8431 101.416 71.2421 101.706 71.768C101.997 72.288 102.142 72.9167 102.142 73.6542V79.7026H100.381V73.7358ZM98.0762 79.8388C96.9145 79.8388 96.0462 79.5997 95.4716 79.1222C94.8961 78.6386 94.6088 77.9074 94.6088 76.9278C94.6088 75.9967 94.8721 75.2985 95.3988 74.833C95.9254 74.3676 96.7208 74.1348 97.7858 74.1348H100.463L100.59 75.622H97.7951C97.311 75.622 96.9478 75.7308 96.7054 75.9484C96.4699 76.16 96.3514 76.4865 96.3514 76.9278C96.3514 77.4052 96.5086 77.7588 96.8239 77.9886C97.1445 78.2184 97.6286 78.333 98.2761 78.333C98.984 78.333 99.5099 78.2579 99.8553 78.107C100.206 77.9553 100.381 77.7201 100.381 77.399L100.572 78.723C100.409 78.9768 100.206 79.1857 99.9637 79.349C99.7283 79.5122 99.4526 79.633 99.1381 79.7119C98.8236 79.7962 98.4697 79.8388 98.0762 79.8388ZM106.807 77.2724C106.807 77.5019 106.856 77.6806 106.953 77.8075C107.056 77.9283 107.198 77.9886 107.38 77.9886H108.251V79.7483H107.161C106.46 79.7483 105.915 79.53 105.528 79.0952C105.147 78.6595 104.956 78.0459 104.956 77.2542V66.5176H106.807V77.2724ZM112.199 77.2724C112.199 77.5019 112.247 77.6806 112.344 77.8075C112.447 77.9283 112.589 77.9886 112.771 77.9886H113.642V79.7483H112.553C111.851 79.7483 111.306 79.53 110.919 79.0952C110.538 78.6595 110.348 78.0459 110.348 77.2542V66.5176H112.199V77.2724ZM119.596 79.8388C118.725 79.8388 117.98 79.6755 117.363 79.349C116.746 79.0224 116.274 78.545 115.947 77.9159C115.627 77.2814 115.466 76.5167 115.466 75.622V74.561C115.466 73.63 115.62 72.835 115.929 72.1761C116.244 71.5172 116.698 71.0153 117.29 70.6708C117.884 70.3262 118.598 70.1539 119.433 70.1539C120.219 70.1539 120.891 70.3504 121.448 70.7434C122.004 71.1363 122.428 71.7046 122.718 72.4481C123.015 73.1917 123.163 74.0834 123.163 75.1232V75.7398H116.809V74.2527H121.402C121.348 73.4849 121.148 72.8894 120.803 72.4662C120.464 72.0371 120.007 71.8224 119.433 71.8224C118.731 71.8224 118.186 72.0522 117.799 72.5116C117.418 72.9711 117.227 73.6209 117.227 74.4613V75.6582C117.227 76.438 117.433 77.0366 117.844 77.4539C118.256 77.871 118.839 78.0791 119.596 78.0791C119.971 78.0791 120.343 78.0041 120.712 77.8524C121.082 77.7015 121.411 77.4903 121.702 77.218L122.918 78.4328C122.452 78.8808 121.929 79.2283 121.348 79.4759C120.767 79.7181 120.183 79.8388 119.596 79.8388ZM125.705 70.2899H127.556V79.7026H125.705V70.2899ZM130.887 72.5207C130.723 72.3212 130.518 72.17 130.27 72.0673C130.022 71.9645 129.734 71.9131 129.407 71.9131C128.82 71.9131 128.363 72.0763 128.037 72.4028C127.716 72.7232 127.556 73.1706 127.556 73.7449L127.365 71.9312C127.656 71.3691 128.031 70.9338 128.49 70.6254C128.951 70.3111 129.459 70.1539 130.015 70.1539C130.445 70.1539 130.833 70.2174 131.177 70.3443C131.528 70.4652 131.834 70.6466 132.094 70.8884L130.887 72.5207ZM140.979 70.2899L136.968 81.9064C136.823 82.3351 136.632 82.674 136.396 82.9216C136.16 83.1755 135.87 83.3573 135.525 83.4656C135.18 83.5747 134.756 83.6289 134.254 83.6289H133.882V81.8515H134.254C134.599 81.8515 134.872 81.7826 135.071 81.6433C135.277 81.504 135.456 81.2657 135.607 80.9268L139.092 70.2899H140.979ZM132.639 70.2899H134.526L137.422 78.4691L136.396 80.4733L132.639 70.2899Z" fill="white"/>
<path d="M127.903 20.0262H109.98V0H0V109.881H19.3782V129.907H129.359V89.3595H126.439V126.998H22.2904V109.881H109.973V89.6071H107.053V106.971H22.2904V22.9435H107.06V60.0321H109.98V22.9435H126.439V60.5816H129.359V20.0262H127.903ZM20.8421 20.0262H19.386V106.964H2.9199V2.91726H107.068V20.0339H20.8343L20.8421 20.0262Z" fill="white"/>
</g>
</svg>
