<svg width="87" height="87" viewBox="0 0 87 87" fill="none" xmlns="http://www.w3.org/2000/svg">
<path d="M18.1667 61.4942L21.6056 62.6405L18.1667 61.4942ZM20.8825 53.3468L17.4435 52.2004L17.4435 52.2004L20.8825 53.3468ZM23.6847 48.8126L26.248 51.3758L26.248 51.3758L23.6847 48.8126ZM50.7484 21.7489L48.1852 19.1856L48.1852 19.1856L50.7484 21.7489ZM65.2484 36.2489L67.8117 38.8122V38.8122L65.2484 36.2489ZM38.1847 63.3126L35.6215 60.7493L35.6215 60.7493L38.1847 63.3126ZM33.6505 66.1149L34.7969 69.5538L34.7969 69.5538L33.6505 66.1149ZM25.5031 68.8307L26.6495 72.2696L26.6495 72.2696L25.5031 68.8307ZM36.6983 64.7L34.5152 61.8061L34.5152 61.8061L36.6983 64.7ZM35.5562 65.4058L33.9442 62.159L35.5562 65.4058ZM68.7415 25.7798L65.4934 27.3893L65.4934 27.3893L68.7415 25.7798ZM68.7415 32.218L65.4934 30.6085L65.4934 30.6085L68.7415 32.218ZM54.7793 18.2558L56.3889 21.5039L56.3889 21.5039L54.7793 18.2558ZM61.2175 18.2558L59.608 21.5039L59.608 21.5039L61.2175 18.2558ZM21.5915 51.4411L24.8383 53.0532L24.8383 53.0532L21.5915 51.4411ZM22.2974 50.299L19.4035 48.1159L19.4035 48.1159L22.2974 50.299ZM16.8156 67.9848L13.4012 69.2024L16.8156 67.9848ZM19.0125 70.1817L17.7949 73.5961L17.7949 73.5961L19.0125 70.1817ZM49.6866 22.8108C48.271 21.3951 45.9758 21.3951 44.5601 22.8108C43.1445 24.2264 43.1445 26.5216 44.5601 27.9373L49.6866 22.8108ZM59.0601 42.4373C60.4758 43.8529 62.771 43.8529 64.1866 42.4373C65.6023 41.0216 65.6023 38.7264 64.1866 37.3108L59.0601 42.4373ZM43.4984 68.8739C41.4964 68.8739 39.8734 70.4969 39.8734 72.4989C39.8734 74.5009 41.4964 76.1239 43.4984 76.1239V68.8739ZM68.8734 76.1239C70.8754 76.1239 72.4984 74.5009 72.4984 72.4989C72.4984 70.4969 70.8754 68.8739 68.8734 68.8739V76.1239ZM21.6056 62.6405L24.3214 54.4931L17.4435 52.2004L14.7277 60.3479L21.6056 62.6405ZM26.248 51.3758L53.3117 24.3122L48.1852 19.1856L21.1215 46.2493L26.248 51.3758ZM62.6851 33.6856L35.6215 60.7493L40.748 65.8758L67.8117 38.8122L62.6851 33.6856ZM32.5042 62.6759L24.3568 65.3917L26.6495 72.2696L34.7969 69.5538L32.5042 62.6759ZM35.6215 60.7493C34.8309 61.5399 34.6707 61.6888 34.5152 61.8061L38.8815 67.5938C39.5323 67.1028 40.0943 66.5296 40.748 65.8758L35.6215 60.7493ZM34.7969 69.5538C35.674 69.2615 36.438 69.0152 37.1683 68.6527L33.9442 62.159C33.7697 62.2456 33.5649 62.3223 32.5042 62.6759L34.7969 69.5538ZM34.5152 61.8061C34.3362 61.9411 34.145 62.0593 33.9442 62.159L37.1683 68.6527C37.7708 68.3535 38.3444 67.999 38.8815 67.5938L34.5152 61.8061ZM62.6851 24.3122C64.8686 26.4957 65.2959 26.9907 65.4934 27.3893L71.9896 24.1702C71.1305 22.4367 69.5812 20.9552 67.8117 19.1856L62.6851 24.3122ZM67.8117 38.8122C69.5812 37.0426 71.1305 35.5611 71.9896 33.8276L65.4934 30.6085C65.2959 31.0071 64.8686 31.5022 62.6851 33.6856L67.8117 38.8122ZM65.4934 27.3893C65.996 28.4035 65.996 29.5943 65.4934 30.6085L71.9896 33.8276C73.4973 30.785 73.4973 27.2128 71.9896 24.1702L65.4934 27.3893ZM53.3117 24.3122C55.4952 22.1287 55.9902 21.7014 56.3889 21.5039L53.1697 15.0077C51.4362 15.8668 49.9547 17.4161 48.1852 19.1856L53.3117 24.3122ZM67.8117 19.1856C66.0421 17.4161 64.5606 15.8668 62.8271 15.0077L59.608 21.5039C60.0066 21.7014 60.5017 22.1287 62.6851 24.3122L67.8117 19.1856ZM56.3889 21.5039C57.403 21.0013 58.5938 21.0013 59.608 21.5039L62.8271 15.0077C59.7845 13.5 56.2123 13.5 53.1697 15.0077L56.3889 21.5039ZM24.3214 54.4931C24.675 53.4324 24.7517 53.2276 24.8383 53.0532L18.3447 49.8291C17.9821 50.5593 17.7358 51.3234 17.4435 52.2004L24.3214 54.4931ZM21.1215 46.2493C20.4677 46.903 19.8945 47.465 19.4035 48.1159L25.1912 52.4821C25.3085 52.3266 25.4574 52.1664 26.248 51.3758L21.1215 46.2493ZM24.8383 53.0532C24.938 52.8523 25.0562 52.6611 25.1913 52.4821L19.4035 48.1159C18.9983 48.6529 18.6438 49.2265 18.3447 49.8291L24.8383 53.0532ZM14.7277 60.3479C14.1602 62.0503 13.6516 63.5647 13.362 64.7969C13.0851 65.9752 12.8235 67.5823 13.4012 69.2024L20.23 66.7673C20.3878 67.2096 20.2114 67.3424 20.4198 66.4553C20.6156 65.6221 20.9925 64.48 21.6056 62.6405L14.7277 60.3479ZM24.3568 65.3917C22.5173 66.0049 21.3752 66.3817 20.542 66.5775C19.6549 66.786 19.7877 66.6095 20.23 66.7673L17.7949 73.5961C19.415 74.1738 21.0221 73.9122 22.2004 73.6353C23.4326 73.3458 24.947 72.8371 26.6495 72.2696L24.3568 65.3917ZM13.4012 69.2024C14.1322 71.2522 15.7452 72.8652 17.7949 73.5961L20.23 66.7673L20.23 66.7673L13.4012 69.2024ZM44.5601 27.9373L59.0601 42.4373L64.1866 37.3108L49.6866 22.8108L44.5601 27.9373ZM43.4984 76.1239H68.8734V68.8739H43.4984V76.1239Z" fill="#F9FBFD"/>
</svg>
